<?xml version="1.0" encoding="utf-8"?>
<!-- Generator: Adobe Illustrator 22.1.0, SVG Export Plug-In . SVG Version: 6.00 Build 0)  -->
<svg version="1.1" id="Layer_1" xmlns="http://www.w3.org/2000/svg" xmlns:xlink="http://www.w3.org/1999/xlink" x="0px" y="0px"
	 viewBox="0 0 144 144" style="enable-background:new 0 0 144 144;" xml:space="preserve">
<style type="text/css">
	.st0{fill:#FFFFFF;}
</style>
<g>
	<path class="st0" d="M75.8,56.7c-1.4-1.7-3.5-2.6-6.3-2.6c-3.6,0-6.6,1.5-9,4.4c-2.5,2.9-4.3,6.5-5.4,10.6
		c-1.1,4.2-1.7,8.2-1.7,11.9c0,4.3,0.9,7.6,2.8,9.7c1.8,2.1,4,3.2,6.5,3.2c2.9,0,5.4-1,7.5-2.9c2.1-1.9,3.9-4.4,5.2-7.4
		s2.3-5.9,2.9-8.8c0.6-2.9,0.9-5.5,0.9-7.8c0-1.4-0.2-3-0.6-4.9C78.1,60.2,77.2,58.4,75.8,56.7z"/>
	<path class="st0" d="M134,0H10C4.5,0,0,4.5,0,10v124c0,5.5,4.5,10,10,10h124c5.5,0,10-4.5,10-10V10C144,4.5,139.5,0,134,0z
		 M112.1,117.5c-5.1,3.7-10.8,6.3-17,7.9c-6.2,1.6-12.8,2.4-19.8,2.4c-10.6,0-20.3-1.7-29.1-5.2c-4.9-1.9-9.2-4.5-12.8-7.7
		c-3.7-3.2-6.6-6.9-9-11c-2.3-4.1-4-8.4-5.1-12.8c-1.1-4.4-1.6-8.9-1.6-13.6c0-6.9,1.2-13.7,3.5-20.3c2.3-6.6,5.8-12.6,10.5-17.9
		c4.7-5.3,10.6-9.6,17.8-12.7c7.2-3.1,15.5-4.7,24.9-4.7c9.7,0,18.2,1.9,25.3,5.7c7.1,3.8,12.5,8.9,16.2,15.4
		c3.7,6.4,5.6,13.5,5.6,21.2c0,6.8-1.6,13.3-4.7,19.5c-3.2,6.2-7.5,11.1-13.1,14.9C98,102.1,91.8,104,85,104c-3.4,0-5.8-0.5-7.2-1.6
		c-1.4-1.1-2.5-2.6-3.1-4.7c-1.8,1.6-3.8,3.1-6.1,4.4c-2.3,1.3-5.3,1.9-8.9,1.9c-4,0-7.7-0.9-10.8-2.8c-3.2-1.9-5.7-4.6-7.5-8.2
		c-1.8-3.6-2.7-7.8-2.7-12.6c0-5.3,1.2-10.7,3.5-16.4s5.8-10.3,10.3-14.1c4.5-3.8,9.8-5.7,15.8-5.7c6.7,0,11.6,2.5,14.8,7.5l1.2-6.1
		h14.6l-8.3,39.6c-0.6,2.7-0.8,4.4-0.8,4.9c0,1.8,0.7,2.6,2.2,2.6c2,0,4.5-1.3,7.7-3.9c3.1-2.6,5.9-6.2,8.2-10.6
		c2.3-4.4,3.5-9.4,3.5-14.8c0-3.4-0.6-6.9-1.8-10.5c-1.2-3.6-3.3-7-6.1-10.2c-2.8-3.2-6.7-5.8-11.5-7.9s-10.7-3-17.7-3
		c-9.1,0-16.8,1.6-23,4.8s-11,7.2-14.3,12.1c-3.4,4.9-5.7,9.9-7,15s-2,9.9-2,14.3c0,4.8,0.8,9.6,2.4,14.2c1.6,4.6,4.2,8.9,7.8,12.7
		c3.6,3.8,8.4,6.9,14.5,9.2c6.1,2.3,13.4,3.5,21.9,3.5c7.8,0,14.2-0.8,19.4-2.5c5.2-1.7,9.2-3.6,11.9-5.7c2.7-2.1,4.9-4.3,6.7-6.4
		h11.7C121.2,108.9,117.2,113.8,112.1,117.5z"/>
</g>
</svg>
