<svg id="Layer_1" data-name="Layer 1" xmlns="http://www.w3.org/2000/svg" viewBox="0 0 300 100"><defs><style>.cls-1{fill:#1d1d1b;}.cls-2{fill:#ffdc00;}</style></defs><title>Artboard 1</title><path class="cls-1" d="M49.38,42.92V49.5h7.3v1.08h-7.3v8.28h7.49v1.08H48.23V41.84h8.64v1.08Z"/><path class="cls-1" d="M71.36,41.84h1.16V53.12c0,1.85,0,3.43-1.23,5a6.79,6.79,0,0,1-9.84,0c-1.22-1.52-1.22-3.1-1.22-5V41.84h1.15V52.79c0,1.63,0,3.36.94,4.56a5.57,5.57,0,0,0,8.11,0c.93-1.2.93-2.93.93-4.56Z"/><path class="cls-1" d="M90.61,45.54a8.24,8.24,0,0,0-6.07-2.86A8.41,8.41,0,0,0,76.31,51a7.88,7.88,0,0,0,2.42,5.59,8.78,8.78,0,0,0,5.81,2.5,8.6,8.6,0,0,0,6.07-2.76v1.58a9.38,9.38,0,0,1-6,2.26,9.29,9.29,0,1,1,0-18.58,9,9,0,0,1,6,2.35Z"/><path class="cls-1" d="M106.12,49.52V41.84h1.15v18.1h-1.15V50.6h-11v9.34H94V41.84h1.15v7.68Z"/><path class="cls-1" d="M115.19,59.94H114v-17h-4.68V41.84h10.52v1.08h-4.68Z"/><path class="cls-1" d="M123.11,42.92V49.5h7.29v1.08h-7.29v8.28h7.48v1.08H122V41.84h8.64v1.08Z"/><path class="cls-1" d="M150.47,60.54l-15.2-16.16V59.94h-1.15V41.6l15.2,16V41.84h1.15Z"/><path class="cls-1" d="M158.65,56h5.64v4H154V41.84h4.7Z"/><path class="cls-1" d="M181.52,41.84V52c0,2.33-.09,4.63-1.89,6.38a9.92,9.92,0,0,1-12,0c-1.8-1.75-1.9-4-1.9-6.38V41.84h4.7v9.53c0,2.35.17,4.92,3.2,4.92s3.19-2.57,3.19-4.92V41.84Z"/><path class="cls-1" d="M194.94,41.84h5.83l-7.2,8.57,7.85,9.53h-6.1l-6.07-7.85h-.05v7.85h-4.7V41.84h4.7V49.3h.05Z"/><path class="cls-1" d="M207.3,56.79l-1.25,3.15h-5l7-18.1h5.13L220,59.94h-5l-1.17-3.15Zm3.29-9.36h-.05l-1.95,5.76h3.92Z"/><path class="cls-1" d="M231.37,46.5a4.94,4.94,0,0,0-3.12-1.2c-.86,0-2,.5-2,1.51s1.28,1.46,2.09,1.73l1.2.36c2.52.74,4.47,2,4.47,4.94a6.14,6.14,0,0,1-1.88,4.87A7.92,7.92,0,0,1,227,60.42a11.15,11.15,0,0,1-6.36-2.07l2-3.79a6.47,6.47,0,0,0,4.18,1.87c1.1,0,2.28-.55,2.28-1.82s-1.85-1.78-2.86-2.07c-2.95-.83-4.89-1.6-4.89-5.11a5.86,5.86,0,0,1,6.24-6.07,12.41,12.41,0,0,1,5.66,1.49Z"/><path class="cls-1" d="M246.15,46.5A4.92,4.92,0,0,0,243,45.3c-.86,0-2,.5-2,1.51s1.27,1.46,2.09,1.73l1.2.36c2.52.74,4.46,2,4.46,4.94a6.14,6.14,0,0,1-1.87,4.87,8,8,0,0,1-5.14,1.71,11.15,11.15,0,0,1-6.36-2.07l2-3.79a6.45,6.45,0,0,0,4.17,1.87c1.11,0,2.28-.55,2.28-1.82S242,52.83,241,52.54c-3-.83-4.9-1.6-4.9-5.11a5.87,5.87,0,0,1,6.24-6.07A12.41,12.41,0,0,1,248,42.85Z"/><path class="cls-1" d="M255.71,45.82v3H261v4h-5.3V56h5.59v4H251V41.84h10.3v4Z"/><path class="cls-1" d="M264.2,41.84h4.71l8.61,11.07h.05V41.84h4.7v18.1h-4.7L269,48.85h0V59.94H264.2Z"/><path class="cls-1" d="M283.83,44.23a2.38,2.38,0,1,1,2.38,2.37A2.37,2.37,0,0,1,283.83,44.23Zm4.19,0A1.81,1.81,0,1,0,286.21,46,1.77,1.77,0,0,0,288,44.23Zm-.67,1.2h-.6l-.55-1h-.39v1h-.55V43h1.2c.57,0,1,.1,1,.76,0,.45-.24.64-.67.67ZM286.47,44c.28,0,.43-.06.43-.38s-.32-.25-.56-.25h-.53V44Z"/><path class="cls-2" d="M194,79.14h-2.24V65.56H194Z"/><path class="cls-2" d="M198.15,68a1.33,1.33,0,1,1-1.33-1.33A1.33,1.33,0,0,1,198.15,68Zm-.21,11.16H195.7V71.28h2.24Z"/><path class="cls-2" d="M205,73.68a2.21,2.21,0,0,0-1.65-.77,2.16,2.16,0,0,0-2,2.34,2.09,2.09,0,0,0,2.06,2.26,2.14,2.14,0,0,0,1.57-.76v2.16a3.88,3.88,0,0,1-1.94.48,4,4,0,0,1-4-4.16A4.08,4.08,0,0,1,203.15,71a3.5,3.5,0,0,1,1.83.5Z"/><path class="cls-2" d="M208.61,65.56v6.38h0a2.45,2.45,0,0,1,2.05-.92c2.11,0,2.72,1.49,2.72,3.32v4.8h-2.24V75c0-1,.05-2.16-1.22-2.16s-1.34,1.48-1.34,2.43v3.89h-2.24V65.56Z"/><path class="cls-2" d="M217.52,79.14h-2.24v-6h-.77V71.28h.77V68.62h2.24v2.66h1.38v1.89h-1.38Z"/><path class="cls-2" d="M224.16,70.94V74.1h3.15V76h-3.15v3.16h-1.89V76h-3.15V74.1h3.15V70.94Z"/><path class="cls-2" d="M231.63,75.81,233.55,71h1.07l1.94,4.85,1.67-4.59h2.43l-3.65,8h-1.14l-1.68-4.79-1.87,4.79h-1.15l-3.62-8H230Z"/><path class="cls-2" d="M248.88,75.22a4.13,4.13,0,1,1-4.13-4.2A4,4,0,0,1,248.88,75.22Zm-6,0A1.88,1.88,0,1,0,244.75,73,2.05,2.05,0,0,0,242.9,75.22Z"/><path class="cls-2" d="M252.18,65.56v6.38h0a2.44,2.44,0,0,1,2-.92c2.11,0,2.72,1.49,2.72,3.32v4.8h-2.24V75c0-1,0-2.16-1.22-2.16s-1.34,1.48-1.34,2.43v3.89h-2.24V65.56Z"/><path class="cls-2" d="M260.82,72h0a2.33,2.33,0,0,1,2-1c2.11,0,2.72,1.49,2.72,3.32v4.8h-2.24V75c0-1,0-2.16-1.22-2.16s-1.34,1.48-1.34,2.43v3.89h-2.24V71.28h2.24Z"/><path class="cls-2" d="M269,75.57c0,1,.39,2.11,1.56,2.11a1.64,1.64,0,0,0,1.5-1.07l2.07.34a3.63,3.63,0,0,1-3.57,2.44,3.8,3.8,0,0,1-3.93-4.11c0-2.38,1.27-4.26,3.81-4.26s3.73,1.91,3.73,4.28v.27Zm3.06-1.39a1.64,1.64,0,0,0-1.49-1.59,1.62,1.62,0,0,0-1.5,1.59Z"/><path class="cls-2" d="M277.47,72h0a2.34,2.34,0,0,1,2.05-1c2.12,0,2.72,1.49,2.72,3.32v4.8H280V75c0-1,.05-2.16-1.21-2.16s-1.35,1.48-1.35,2.43v3.89h-2.24V71.28h2.24Z"/><polygon class="cls-1" points="17.62 59.94 45.07 59.94 45.06 58.83 28.45 58.83 28.43 35.73 27.8 35.04 12.58 35.04 22.53 12.96 33.8 12.95 44.66 36.3 45.59 35.81 34.61 12.27 34.02 11.89 22.31 11.89 21.73 12.27 11.31 35.23 11.88 36.12 27.41 36.12 27.42 58.83 17.62 58.83 17.62 59.94"/></svg>