<?xml version="1.0" encoding="utf-8"?>
<!-- Generator: Adobe Illustrator 22.1.0, SVG Export Plug-In . SVG Version: 6.00 Build 0)  -->
<svg version="1.1" id="Layer_1" xmlns="http://www.w3.org/2000/svg" xmlns:xlink="http://www.w3.org/1999/xlink" x="0px" y="0px"
	 viewBox="0 0 300 66" style="enable-background:new 0 0 300 66;" xml:space="preserve">
<style type="text/css">
	.st0{fill:#1D1D1B;}
</style>
<g>
	<path class="st0" d="M23.5,32.5v-0.7H9.6V8.5H8.9v24H23.5L23.5,32.5z M47.7,23.3V8.5H47v14.9c0,1.5-0.2,2.7-0.6,3.9
		c-0.4,1.1-1,2-1.8,2.8c-0.8,0.7-1.8,1.3-2.9,1.6c-1.1,0.4-2.4,0.5-3.7,0.5c-2.9,0-5.1-0.7-6.7-2.2c-1.6-1.5-2.4-3.7-2.4-6.6V8.5
		h-0.7v14.9c0,3.1,0.8,5.5,2.4,7.1c1.6,1.6,4.1,2.4,7.3,2.4c3.1,0,5.5-0.8,7.2-2.4C46.8,28.8,47.7,26.5,47.7,23.3L47.7,23.3
		L47.7,23.3z M77.1,26.9h-0.7c-0.3,1-0.8,1.9-1.4,2.6c-0.7,0.7-1.4,1.2-2.3,1.6s-1.8,0.7-2.8,0.8c-1,0.2-2,0.2-3,0.2
		c-3.7,0-6.5-1-8.4-3s-2.8-4.9-2.8-8.5c0-1.8,0.2-3.5,0.7-4.9c0.5-1.5,1.2-2.7,2.2-3.7s2.1-1.8,3.5-2.4s3-0.8,4.7-0.8
		c2.3,0,4.3,0.4,5.8,1.2s2.5,2,3,3.6h0.7c-0.3-1.1-0.8-2-1.5-2.8c-0.7-0.7-1.5-1.3-2.4-1.6c-0.9-0.4-1.8-0.7-2.8-0.8
		s-1.9-0.2-2.9-0.2c-2,0-3.7,0.3-5.2,0.9c-1.5,0.6-2.7,1.5-3.7,2.6s-1.7,2.4-2.2,3.9s-0.7,3.2-0.7,5.1c0,3.9,1,6.9,3,9
		s4.9,3.2,8.8,3.2c1.2,0,2.3-0.1,3.4-0.3s2.1-0.5,2.9-0.9c0.9-0.5,1.7-1.1,2.3-1.8C76.2,29,76.7,28.1,77.1,26.9L77.1,26.9L77.1,26.9
		z M100.9,24H86.1l7.5-14.9L100.9,24L100.9,24z M105.9,32.5L93.8,8.2h-0.6l-12,24.3H82l3.8-7.8h15.4l3.9,7.8H105.9L105.9,32.5z
		 M132.6,32.5v-24h-0.7v23.3L113.1,8.5h-1v24h0.7V9.1l18.8,23.3L132.6,32.5L132.6,32.5z M143.1,32.5v-24h-0.7v24H143.1L143.1,32.5z
		 M169,24h-14.8l7.5-14.9L169,24L169,24z M174.1,32.5L162,8.2h-0.6l-12,24.3h0.8l3.8-7.8h15.4l3.9,7.8H174.1L174.1,32.5z M196,32.5
		v-1.9h-13.8V8.5h-2.3v24H196L196,32.5z M204.3,32.5v-24H202v24H204.3L204.3,32.5z M235.9,31V20.3H226v1.9h7.6v7.4
		c-1.2,0.5-2.6,0.9-4,1.1c-1.4,0.3-2.8,0.4-4.2,0.4c-1.8,0-3.4-0.3-4.8-0.8c-1.4-0.5-2.5-1.2-3.4-2.2c-0.9-0.9-1.6-2-2.1-3.3
		s-0.7-2.7-0.7-4.3c0-1.6,0.2-3,0.7-4.4c0.5-1.3,1.2-2.4,2.1-3.4c0.9-0.9,2.1-1.7,3.4-2.2c1.3-0.5,2.9-0.8,4.6-0.8
		c2.2,0,4,0.4,5.4,1.1c1.4,0.7,2.4,1.8,2.7,3.3h2.4c-0.2-1.1-0.6-2.1-1.3-2.9c-0.6-0.8-1.4-1.4-2.4-1.9s-2-0.9-3.2-1.1
		C227.7,8.1,226.4,8,225,8c-2.2,0-4.1,0.3-5.7,0.9c-1.6,0.6-3,1.5-4.1,2.6s-1.9,2.4-2.4,4c-0.5,1.5-0.8,3.2-0.8,5s0.3,3.5,0.8,5
		s1.3,2.8,2.4,3.9c1.1,1.1,2.5,2,4.1,2.6c1.7,0.6,3.7,0.9,6,0.9c1.9,0,3.7-0.1,5.4-0.4C232.4,32.2,234.2,31.7,235.9,31L235.9,31
		L235.9,31z M265.3,32.5v-24H263v10.6h-16.6V8.5h-2.3v24h2.3V20.9H263v11.6H265.3L265.3,32.5z M293.4,10.5v-2H271v2h10v22h2.3v-22
		H293.4L293.4,10.5z"/>
	<path class="st0" d="M37.3,52.7v-0.6H31V41.9h-0.7v10.8H37.3L37.3,52.7z M42,52.7V41.9h-0.7v10.8H42L42,52.7z M57.1,50.1h-0.8
		c-0.1,0.4-0.3,0.8-0.6,1.1s-0.6,0.5-0.9,0.7c-0.4,0.2-0.8,0.3-1.2,0.4c-0.4,0.1-0.8,0.1-1.3,0.1c-1.6,0-2.7-0.4-3.6-1.3
		c-0.8-0.8-1.2-2.1-1.2-3.7c0-0.8,0.1-1.5,0.3-2.1s0.5-1.2,1-1.6c0.4-0.4,0.9-0.8,1.5-1s1.3-0.3,2-0.3c1,0,1.8,0.2,2.4,0.5
		c0.7,0.3,1.1,0.9,1.3,1.6h0.8c-0.1-0.5-0.3-0.9-0.6-1.2s-0.6-0.6-1-0.8s-0.9-0.4-1.3-0.5c-0.5-0.1-1-0.1-1.4-0.1
		c-1,0-1.8,0.2-2.5,0.5s-1.3,0.7-1.7,1.2c-0.5,0.5-0.8,1.1-1,1.8S47,46.8,47,47.6s0.1,1.6,0.3,2.3s0.6,1.3,1,1.8
		c0.5,0.5,1,0.9,1.7,1.1c0.7,0.3,1.5,0.4,2.4,0.4c0.6,0,1.1,0,1.6-0.1s1-0.3,1.4-0.5s0.8-0.5,1.1-0.9C56.7,51.1,56.9,50.6,57.1,50.1
		L57.1,50.1L57.1,50.1z M71,52.7V41.9h-0.7v4.9h-7.9v-4.9h-0.7v10.8h0.7v-5.3h7.9v5.3H71L71,52.7z M84.6,42.5v-0.6H75v0.6h4.5v10.2
		h0.7V42.5H84.6L84.6,42.5z M95.6,48.3v-1h-0.8v1H95.6L95.6,48.3z M108.1,52.7V41.9h-0.7v10.8H108.1L108.1,52.7z M116.6,52.7
		l-7.5-5.8l7-5h-1l-6.9,5l7.4,5.8H116.6L116.6,52.7z M128.5,51c-0.8,0.9-2,1.3-3.6,1.3s-2.8-0.4-3.6-1.3c-0.8-0.9-1.2-2.1-1.2-3.7
		c0-0.8,0.1-1.6,0.3-2.2c0.2-0.6,0.5-1.2,1-1.6c0.4-0.4,0.9-0.7,1.5-1c0.6-0.2,1.3-0.3,2-0.3s1.4,0.1,2,0.3s1.1,0.5,1.5,1
		c0.4,0.4,0.7,0.9,1,1.6c0.2,0.6,0.3,1.4,0.3,2.2C129.8,48.9,129.4,50.2,128.5,51L128.5,51z M130.2,45c-0.2-0.7-0.6-1.3-1-1.8
		c-0.5-0.5-1-0.9-1.7-1.2s-1.5-0.4-2.5-0.4c-0.9,0-1.7,0.1-2.4,0.4c-0.7,0.3-1.3,0.7-1.7,1.2c-0.5,0.5-0.8,1.1-1,1.8
		s-0.3,1.5-0.3,2.3s0.1,1.6,0.3,2.2c0.2,0.7,0.5,1.3,1,1.8s1,0.9,1.7,1.2s1.5,0.4,2.5,0.4s1.8-0.1,2.5-0.4c0.7-0.3,1.3-0.7,1.7-1.2
		c0.5-0.5,0.8-1.1,1-1.8s0.3-1.4,0.3-2.2C130.5,46.5,130.4,45.7,130.2,45L130.2,45z M144.9,52.7V41.9h-0.7v10.2l-7.9-10.2h-1v10.8
		h0.7V42.5l7.9,10.2H144.9L144.9,52.7z M158.1,52.7v-0.6h-8.2l8.1-9.6v-0.7h-8.5v0.6h7.7l-8.1,9.6v0.7H158.1L158.1,52.7z
		 M169.5,52.7v-0.6H163v-4.8h6.2v-0.6H163v-4.2h6.4v-0.6h-7.1v10.8L169.5,52.7L169.5,52.7z M181.2,45.8c-0.1,0.3-0.3,0.6-0.6,0.7
		c-0.3,0.2-0.6,0.3-0.9,0.4c-0.4,0.1-0.8,0.1-1.2,0.1h-3.7v-4.6h3.6c1.1,0,1.8,0.2,2.3,0.6c0.5,0.4,0.7,0.9,0.7,1.6
		C181.4,45.1,181.3,45.5,181.2,45.8L181.2,45.8z M181.2,42.6c-0.6-0.5-1.6-0.7-2.9-0.7H174v10.8h0.7v-5.1h3.8c0.5,0,1-0.1,1.4-0.2
		c0.4-0.1,0.8-0.3,1.1-0.5s0.5-0.6,0.7-0.9c0.2-0.4,0.3-0.8,0.3-1.3C182.1,43.8,181.8,43.1,181.2,42.6L181.2,42.6z M194.6,42.5v-0.6
		H185v0.6h4.5v10.2h0.7V42.5H194.6L194.6,42.5z M205.6,48.3v-1h-0.8v1H205.6L205.6,48.3z M226.3,49.2c-0.2,0.6-0.5,1.1-0.9,1.6
		c-0.4,0.4-0.9,0.8-1.5,1s-1.3,0.4-2.2,0.4h-3.5v-9.7h3.4c1.7,0,3,0.4,3.8,1.2s1.2,2,1.2,3.6C226.6,47.9,226.5,48.6,226.3,49.2
		L226.3,49.2z M225.9,43.2c-0.9-0.9-2.3-1.3-4.3-1.3h-4.1v10.8h4.2c1.9,0,3.2-0.5,4.2-1.4c0.9-1,1.4-2.3,1.4-4.1
		C227.3,45.4,226.8,44.1,225.9,43.2L225.9,43.2z M239.3,52.7v-0.6h-6.5v-4.8h6.2v-0.6h-6.2v-4.2h6.4v-0.6h-7.1v10.8L239.3,52.7
		L239.3,52.7z M251.9,48.9c-0.1-0.3-0.3-0.5-0.5-0.8c-0.2-0.2-0.5-0.4-0.9-0.5c-0.3-0.1-0.7-0.3-1.2-0.4l-3.4-0.9
		c-0.7-0.2-1.2-0.4-1.5-0.7s-0.5-0.7-0.5-1.2s0.1-0.8,0.4-1.1c0.2-0.3,0.5-0.5,0.9-0.7s0.8-0.3,1.2-0.3c0.4-0.1,0.8-0.1,1.2-0.1
		c0.5,0,0.9,0,1.3,0.1c0.4,0.1,0.8,0.2,1.1,0.3c0.3,0.2,0.5,0.4,0.7,0.6c0.2,0.3,0.3,0.6,0.4,0.9h0.7c-0.1-0.5-0.2-0.9-0.4-1.2
		s-0.5-0.6-0.9-0.8s-0.8-0.3-1.3-0.4c-0.5-0.1-1-0.1-1.6-0.1c-0.5,0-1,0-1.5,0.1s-1,0.2-1.4,0.5c-0.4,0.2-0.8,0.5-1.1,0.9
		s-0.4,0.8-0.4,1.4c0,0.4,0.1,0.7,0.2,1c0.1,0.3,0.3,0.5,0.6,0.7c0.2,0.2,0.5,0.3,0.8,0.5c0.3,0.1,0.6,0.2,1,0.3l3.4,0.8
		c0.3,0.1,0.6,0.2,0.9,0.3c0.3,0.1,0.5,0.2,0.7,0.4s0.3,0.4,0.5,0.6c0.1,0.2,0.2,0.5,0.2,0.9c0,0.5-0.1,0.9-0.4,1.2
		c-0.3,0.3-0.6,0.5-1,0.7s-0.8,0.3-1.3,0.4c-0.5,0.1-0.9,0.1-1.3,0.1c-0.4,0-0.9,0-1.3-0.1c-0.4-0.1-0.8-0.2-1.1-0.3
		c-0.3-0.2-0.6-0.4-0.8-0.7s-0.4-0.7-0.4-1.3H243c0.1,0.6,0.2,1.1,0.5,1.5c0.2,0.4,0.6,0.7,1,0.9s0.8,0.4,1.3,0.5s1,0.1,1.6,0.1
		c0.5,0,1.1,0,1.6-0.1s1-0.2,1.5-0.5c0.4-0.2,0.8-0.5,1.1-0.9s0.4-0.9,0.4-1.5C252.1,49.5,252,49.2,251.9,48.9L251.9,48.9z
		 M257.4,52.7V41.9h-0.7v10.8H257.4L257.4,52.7z M272.5,52.1v-4.8h-4.1v0.6h3.4v3.8c-1.2,0.4-2.4,0.7-3.8,0.7
		c-1.7,0-2.9-0.4-3.8-1.3c-0.8-0.9-1.3-2.1-1.3-3.7c0-0.8,0.1-1.5,0.3-2.1c0.2-0.6,0.5-1.2,1-1.6c0.4-0.4,0.9-0.8,1.6-1
		c0.6-0.2,1.3-0.4,2.1-0.4c1.1,0,1.9,0.2,2.5,0.6c0.6,0.4,1.1,0.9,1.2,1.5h0.7c-0.1-0.5-0.3-0.9-0.6-1.3c-0.3-0.3-0.6-0.6-1-0.8
		s-0.9-0.4-1.4-0.4c-0.5-0.1-1-0.1-1.5-0.1c-0.9,0-1.7,0.1-2.4,0.4c-0.7,0.3-1.3,0.6-1.8,1.1s-0.9,1.1-1.1,1.8
		c-0.3,0.7-0.4,1.5-0.4,2.4c0,0.8,0.1,1.6,0.3,2.3c0.2,0.7,0.6,1.3,1.1,1.8s1.1,0.9,1.8,1.1s1.6,0.4,2.6,0.4c0.8,0,1.6-0.1,2.3-0.2
		C271,52.6,271.7,52.4,272.5,52.1L272.5,52.1L272.5,52.1z M287,52.7V41.9h-0.7v10.2l-7.9-10.2h-1v10.8h0.7V42.5l7.9,10.2H287
		L287,52.7z"/>
	<polygon class="st0" points="8.9,41.4 8.9,53 20.5,53 20.5,41.4 	"/>
</g>
</svg>
